<svg xmlns="http://www.w3.org/2000/svg" xmlns:xlink="http://www.w3.org/1999/xlink" id="Layer_2" data-name="Layer 2" viewBox="0 0 114.36 79.81"><defs><style>      .cls-1 {        fill: url(#linear-gradient);        stroke-width: 0px;      }    </style><linearGradient id="linear-gradient" x1="9.27" y1="49.19" x2="190.71" y2="-48.01" gradientUnits="userSpaceOnUse"><stop offset="0" stop-color="#fff"></stop><stop offset=".03" stop-color="#f7fcfb"></stop><stop offset=".08" stop-color="#e3f5f2"></stop><stop offset=".14" stop-color="#c2eae4"></stop><stop offset=".2" stop-color="#93dbcf"></stop><stop offset=".28" stop-color="#59c8b5"></stop><stop offset=".32" stop-color="#2dbaa2"></stop><stop offset=".42" stop-color="#1a5fab"></stop><stop offset=".56" stop-color="#4c3594"></stop><stop offset=".74" stop-color="#1a2750"></stop><stop offset="1" stop-color="#000222"></stop></linearGradient></defs><g id="Layer_1-2" data-name="Layer 1"><path class="cls-1" d="m66.81,15.77L0,15.44l55.04,19.72-30.65,44.65,54.98-35.94,15.4-16.01,4.22-11.54,15.37-7.53-10.1-3.45-3.51-5.34-22.23,4.22-5.14,3.95,26.78-5.69,2.48,4.52,6.48,2.06-12.43,4.85-5.47,12.42M15.92,18.16l49.53.25,22.34,8.84-31.21,5.65L15.92,18.16Zm18.3,52.2l23.66-34.06,17.84,6.27-41.5,27.79Zm44.79-30.16l-16.17-5.6,25.88-4.69-9.7,10.29Z"></path></g></svg>